<?xml version="1.0" standalone="no"?>
<!DOCTYPE svg PUBLIC "-//W3C//DTD SVG 20010904//EN"
 "http://www.w3.org/TR/2001/REC-SVG-20010904/DTD/svg10.dtd">
<svg version="1.0" xmlns="http://www.w3.org/2000/svg"
 width="512.000000pt" height="512.000000pt" viewBox="0 0 512.000000 512.000000"
 preserveAspectRatio="xMidYMid meet">
<metadata>
Created by potrace 1.14, written by Peter Selinger 2001-2017
</metadata>
<g transform="translate(0.000000,512.000000) scale(0.100000,-0.100000)"
fill="#000000" stroke="none">
<path d="M0 2560 l0 -2560 2560 0 2560 0 0 2560 0 2560 -2560 0 -2560 0 0
-2560z m3771 1489 c11 -5 24 -20 28 -32 5 -12 129 -197 276 -412 147 -214 274
-405 282 -423 13 -32 13 -34 -14 -60 -16 -15 -404 -481 -862 -1035 l-834
-1008 -43 3 -42 3 -906 1019 c-832 936 -906 1023 -906 1054 0 30 45 98 297
451 163 229 306 424 317 433 20 16 98 18 1204 18 815 0 1189 -3 1203 -11z"/>
<path d="M1583 3863 c19 -27 112 -158 207 -293 95 -135 177 -250 184 -257 8
-9 60 57 216 279 113 159 209 297 213 304 7 12 -59 14 -423 14 l-432 0 35 -47z"/>
<path d="M2726 3898 c19 -31 397 -574 407 -585 9 -9 50 42 174 220 89 128 184
265 212 305 l52 72 -426 0 c-338 0 -425 -3 -419 -12z"/>
<path d="M1191 3549 c-117 -165 -211 -303 -208 -305 2 -2 194 -3 426 -2 l422
3 -201 284 c-110 156 -207 292 -214 302 -12 17 -33 -10 -225 -282z"/>
<path d="M3504 3547 l-210 -302 214 -3 c117 -1 307 -1 421 0 l208 3 -207 298
c-115 164 -210 300 -212 302 -1 2 -98 -132 -214 -298z"/>
<path d="M2357 3568 c-107 -150 -202 -285 -212 -300 l-17 -28 431 0 431 0
-108 153 c-59 83 -155 218 -212 300 -57 81 -108 147 -112 147 -4 0 -95 -123
-201 -272z"/>
<path d="M1012 3072 c7 -10 283 -324 613 -697 329 -374 644 -731 698 -793 55
-62 101 -111 103 -110 1 2 -111 367 -249 811 l-252 807 -463 0 c-444 0 -463
-1 -450 -18z"/>
<path d="M2090 3083 c0 -4 88 -289 196 -633 108 -344 224 -714 258 -822 34
-109 64 -200 67 -202 5 -5 111 399 369 1402 l68 262 -479 0 c-263 0 -479 -3
-479 -7z"/>
<path d="M3157 2913 c-174 -672 -367 -1436 -364 -1440 3 -2 65 69 138 159 73
90 371 452 661 805 290 353 528 644 528 647 0 3 -206 6 -459 6 l-458 0 -46
-177z"/>
</g>
</svg>
